<?xml version="1.0" encoding="utf-8"?>
<!-- Generator: Adobe Illustrator 16.0.0, SVG Export Plug-In . SVG Version: 6.00 Build 0)  -->
<!DOCTYPE svg PUBLIC "-//W3C//DTD SVG 1.1//EN" "http://www.w3.org/Graphics/SVG/1.1/DTD/svg11.dtd">
<svg version="1.1" xmlns="http://www.w3.org/2000/svg" xmlns:xlink="http://www.w3.org/1999/xlink" x="0px" y="0px" width="476px"
	 height="444px" viewBox="0 0 476 444" enable-background="new 0 0 476 444" xml:space="preserve">
<g id="teksty_calosc" display="none">
</g>
<g id="menu">
</g>
<g id="Layer_2">
</g>
<g id="Layer_1">
</g>
<g id="logo">
	<g>
		<circle fill="#FFED00" cx="129.027" cy="112.142" r="94.318"/>
		<circle fill="#1D1D1B" cx="351.395" cy="108.359" r="94.318"/>
		<circle fill="#1D1D1B" cx="127.931" cy="326.307" r="94.318"/>
		<circle fill="#FFED00" cx="350.185" cy="326.307" r="94.318"/>
		<g>
			<path fill="none" stroke="#FFFFFF" stroke-width="1.4595" stroke-miterlimit="10" d="M427.033,139.467
				c0,0,0.263-1.21-1.514-1.175h-57.8v0.769c-0.006,0.767-0.313,0.611-0.313,0.611H351.44h-0.091h-15.969
				c0,0-0.308,0.155-0.316-0.611l0.006-0.769h-57.803c-1.776-0.035-1.512,1.175-1.512,1.175l-0.014,2.457
				c0.022,1.437,1.451,1.148,1.451,1.148h73.984h0.428h73.991c0,0,1.426,0.288,1.451-1.148L427.033,139.467z"/>
			<path fill="none" stroke="#FFFFFF" stroke-width="1.4595" stroke-miterlimit="10" d="M413.377,67.976
				c0.08-1.743-2.007-1.982-2.007-1.982h-59.976h-59.978c0,0-2.083,0.239-2.007,1.982l-0.003,66.98c0,0-0.009,1.508,1.757,1.48
				h60.23h60.229c1.766,0.027,1.757-1.48,1.757-1.48L413.377,67.976z M351.395,134.932c-0.707,0-1.282-0.574-1.282-1.284
				c0-0.707,0.575-1.284,1.282-1.284c0.71,0,1.283,0.577,1.283,1.284C352.678,134.357,352.104,134.932,351.395,134.932z
				 M410.133,130.875h-93.834h-23.645V69.554h95.23h22.248V130.875z"/>
		</g>
		<g>
			<path fill="none" stroke="#1D1D1B" stroke-width="1.4595" stroke-miterlimit="10" d="M163.117,71.958V53.315
				c0-6.063-4.918-10.978-10.982-10.978h-46.119c-6.063,0-10.98,4.914-10.98,10.978v6.728h-0.451v5.465h0.451v6.672h-0.451V82.3
				h0.451v2.343h-0.451v10.196h0.451v76.123c0,6.066,4.917,10.983,10.98,10.983h46.119c6.064,0,10.982-4.917,10.982-10.983V82.42
				h0.354V71.958H163.117z M129.355,46.004c0.429,0,0.779,0.348,0.779,0.781s-0.351,0.781-0.779,0.781
				c-0.437,0-0.784-0.348-0.784-0.781S128.919,46.004,129.355,46.004z M124.588,50.596h9.58c0.309,0,0.563,0.254,0.563,0.564
				c0,0.309-0.255,0.562-0.563,0.562h-9.58c-0.312,0-0.563-0.254-0.563-0.562C124.024,50.85,124.275,50.596,124.588,50.596z
				 M118.4,49.915c0.678,0,1.226,0.547,1.226,1.22s-0.548,1.223-1.226,1.223c-0.673,0-1.22-0.55-1.22-1.223
				S117.728,49.915,118.4,49.915z M129.076,177.544c-2.885,0-5.231-2.346-5.231-5.23c0-2.882,2.347-5.228,5.231-5.228
				s5.23,2.346,5.23,5.228C134.307,175.198,131.961,177.544,129.076,177.544z M158.626,164.469H99.527V59.299h59.099V164.469z"/>
			<path fill="none" stroke="#1D1D1B" stroke-width="1.4595" stroke-miterlimit="10" d="M129.076,167.673
				c-2.561,0-4.646,2.081-4.646,4.641c0,2.562,2.085,4.646,4.646,4.646c2.56,0,4.643-2.084,4.643-4.646
				C133.719,169.754,131.636,167.673,129.076,167.673z"/>
		</g>
		<g>
			<path fill="none" stroke="#1D1D1B" stroke-width="1.4595" stroke-miterlimit="10" d="M395.363,383.582
				c0,2.942-2.387,5.331-5.33,5.331h-79.698c-2.943,0-5.328-2.389-5.328-5.331v-117.38c0-2.943,2.385-5.33,5.328-5.33h79.698
				c2.943,0,5.33,2.387,5.33,5.33V383.582z"/>
			
				<rect x="310.135" y="271.726" fill="none" stroke="#1D1D1B" stroke-width="1.4595" stroke-miterlimit="10" width="79.834" height="105.125"/>
			<circle fill="none" stroke="#1D1D1B" stroke-width="1.4595" stroke-miterlimit="10" cx="350.084" cy="266.694" r="1.282"/>
			<path fill="none" stroke="#1D1D1B" stroke-width="1.4595" stroke-miterlimit="10" d="M353.127,383.082
				c0,1.576-1.28,2.856-2.854,2.856c-1.576,0-2.856-1.28-2.856-2.856c0-1.574,1.28-2.854,2.856-2.854
				C351.847,380.229,353.127,381.508,353.127,383.082z"/>
			<path fill="none" stroke="#1D1D1B" stroke-width="1.4595" stroke-miterlimit="10" d="M351.341,383.802
				c0,0.152-0.134,0.272-0.304,0.272h-1.502c-0.168,0-0.31-0.12-0.31-0.272v-1.556c0-0.154,0.142-0.272,0.31-0.272h1.502
				c0.17,0,0.304,0.118,0.304,0.272V383.802z"/>
		</g>
		<g>
			<path fill="none" stroke="#FFFFFF" stroke-width="1.4595" stroke-miterlimit="10" d="M155.017,354.105
				c0,2.895-2.346,5.242-5.241,5.242h-47.174c-2.891,0-5.242-2.348-5.242-5.242v-56.084c0-2.897,2.352-5.245,5.242-5.245h47.174
				c2.896,0,5.241,2.348,5.241,5.245V354.105z"/>
			<path fill="none" stroke="#FFFFFF" stroke-width="1.4595" stroke-miterlimit="10" d="M158.301,357.294
				c0,3.227-2.614,5.841-5.838,5.841H99.916c-3.221,0-5.838-2.614-5.838-5.841v-62.465c0-3.226,2.617-5.84,5.838-5.84h52.547
				c3.224,0,5.838,2.614,5.838,5.84V357.294z"/>
			<path fill="none" stroke="#FFFFFF" stroke-width="1.4595" stroke-miterlimit="10" d="M161.784,317.12
				c0,0.748-0.607,1.351-1.352,1.351l0,0c-0.749,0-1.351-0.603-1.351-1.351v-10.556c0-0.748,0.602-1.357,1.351-1.357l0,0
				c0.744,0,1.352,0.609,1.352,1.357V317.12z"/>
			<path fill="none" stroke="#FFFFFF" stroke-width="1.4595" stroke-miterlimit="10" d="M147.711,285.891
				c0,0-1.896-3.243-2.711-11.636c-0.812-8.391-1.08-9.746-16.507-9.746c-0.955,0-4.19,0-5.146,0
				c-15.43,0-15.697,1.355-16.514,9.746c-0.809,8.393-2.705,11.636-2.705,11.636l-2.707,1.897h16.783h5.143h27.068L147.711,285.891z
				"/>
			<path fill="none" stroke="#FFFFFF" stroke-width="1.4595" stroke-miterlimit="10" d="M104.127,366.699
				c0,0,1.896,3.243,2.707,11.636c0.812,8.391,1.084,9.746,16.511,9.746c0.958,0,4.193,0,5.146,0c15.43,0,15.697-1.355,16.51-9.746
				c0.815-8.393,2.708-11.636,2.708-11.636l2.708-1.898h-16.781h-5.145h-27.068L104.127,366.699z"/>
		</g>
	</g>
</g>
</svg>
